<mxfile host="app.diagrams.net" modified="2023-11-23T12:48:53.575Z" agent="Mozilla/5.0 (Windows NT 10.0; Win64; x64) AppleWebKit/537.36 (KHTML, like Gecko) Chrome/119.0.0.0 Safari/537.36" etag="IcmZRQI3urpJ1n3RIi3U" version="22.1.3" type="github">
  <diagram name="Страница — 1" id="OUvadw4zVPrqldWL2w4g">
    <mxGraphModel dx="3475" dy="1353" grid="1" gridSize="10" guides="1" tooltips="1" connect="1" arrows="1" fold="1" page="1" pageScale="1" pageWidth="827" pageHeight="1169" math="0" shadow="0">
      <root>
        <mxCell id="0" />
        <mxCell id="1" parent="0" />
        <mxCell id="dU187JkeMogJ9jSD-jAH-9" value="" style="rounded=0;whiteSpace=wrap;html=1;fillColor=none;glass=0;" vertex="1" parent="1">
          <mxGeometry x="2450" y="800" width="580" height="530" as="geometry" />
        </mxCell>
        <mxCell id="dU187JkeMogJ9jSD-jAH-10" value="Сеть" style="rounded=0;whiteSpace=wrap;html=1;" vertex="1" parent="1">
          <mxGeometry x="2776" y="840" width="200" height="130" as="geometry" />
        </mxCell>
        <mxCell id="dU187JkeMogJ9jSD-jAH-11" value="Звук" style="rounded=0;whiteSpace=wrap;html=1;" vertex="1" parent="1">
          <mxGeometry x="2496" y="840" width="210" height="130" as="geometry" />
        </mxCell>
        <mxCell id="dU187JkeMogJ9jSD-jAH-12" value="Приложение 1" style="rounded=0;whiteSpace=wrap;html=1;" vertex="1" parent="1">
          <mxGeometry x="260" y="940" width="120" height="60" as="geometry" />
        </mxCell>
        <mxCell id="dU187JkeMogJ9jSD-jAH-13" value="Экран" style="rounded=0;whiteSpace=wrap;html=1;" vertex="1" parent="1">
          <mxGeometry x="2776" y="1000" width="200" height="120" as="geometry" />
        </mxCell>
        <mxCell id="dU187JkeMogJ9jSD-jAH-15" value="NFC" style="rounded=0;whiteSpace=wrap;html=1;" vertex="1" parent="1">
          <mxGeometry x="2496" y="1000" width="210" height="120" as="geometry" />
        </mxCell>
        <mxCell id="dU187JkeMogJ9jSD-jAH-16" value="Первоначальная настройка" style="rounded=0;whiteSpace=wrap;html=1;" vertex="1" parent="1">
          <mxGeometry x="2706" y="1630" width="120" height="60" as="geometry" />
        </mxCell>
        <mxCell id="dU187JkeMogJ9jSD-jAH-17" value="Микрофоны" style="rounded=0;whiteSpace=wrap;html=1;" vertex="1" parent="1">
          <mxGeometry x="2496" y="1160" width="210" height="120" as="geometry" />
        </mxCell>
        <mxCell id="dU187JkeMogJ9jSD-jAH-18" value="Связь с приложениями" style="rounded=0;whiteSpace=wrap;html=1;" vertex="1" parent="1">
          <mxGeometry x="2706" y="1720" width="120" height="60" as="geometry" />
        </mxCell>
        <mxCell id="dU187JkeMogJ9jSD-jAH-20" value="" style="rounded=0;whiteSpace=wrap;html=1;fillColor=none;" vertex="1" parent="1">
          <mxGeometry x="4060" y="80" width="2936" height="1860" as="geometry" />
        </mxCell>
        <mxCell id="dU187JkeMogJ9jSD-jAH-21" value="" style="rounded=0;whiteSpace=wrap;html=1;fillColor=none;" vertex="1" parent="1">
          <mxGeometry x="1960" y="2570" width="2936" height="1860" as="geometry" />
        </mxCell>
        <mxCell id="dU187JkeMogJ9jSD-jAH-22" value="" style="endArrow=none;html=1;rounded=0;" edge="1" parent="1">
          <mxGeometry width="50" height="50" relative="1" as="geometry">
            <mxPoint x="3320" y="2010" as="sourcePoint" />
            <mxPoint x="3310" y="2000" as="targetPoint" />
            <Array as="points">
              <mxPoint x="80" y="2010" />
              <mxPoint x="80" y="200" />
              <mxPoint x="3310" y="200" />
            </Array>
          </mxGeometry>
        </mxCell>
        <mxCell id="dU187JkeMogJ9jSD-jAH-29" value="io Блок" style="text;strokeColor=none;fillColor=none;html=1;fontSize=24;fontStyle=1;verticalAlign=middle;align=center;" vertex="1" parent="1">
          <mxGeometry x="2686" y="750" width="100" height="40" as="geometry" />
        </mxCell>
        <mxCell id="dU187JkeMogJ9jSD-jAH-30" value="Приложение 2" style="rounded=0;whiteSpace=wrap;html=1;" vertex="1" parent="1">
          <mxGeometry x="260" y="1030" width="120" height="60" as="geometry" />
        </mxCell>
        <mxCell id="dU187JkeMogJ9jSD-jAH-31" value="Приложение 3" style="rounded=0;whiteSpace=wrap;html=1;" vertex="1" parent="1">
          <mxGeometry x="260" y="1120" width="120" height="60" as="geometry" />
        </mxCell>
        <mxCell id="dU187JkeMogJ9jSD-jAH-32" value="Приложение 4" style="rounded=0;whiteSpace=wrap;html=1;" vertex="1" parent="1">
          <mxGeometry x="260" y="1210" width="120" height="60" as="geometry" />
        </mxCell>
        <mxCell id="dU187JkeMogJ9jSD-jAH-33" value="" style="rounded=0;whiteSpace=wrap;html=1;fillColor=none;glass=0;" vertex="1" parent="1">
          <mxGeometry x="160" y="910" width="330" height="430" as="geometry" />
        </mxCell>
        <mxCell id="dU187JkeMogJ9jSD-jAH-34" value="Запущенные приложения" style="text;strokeColor=none;fillColor=none;html=1;fontSize=24;fontStyle=1;verticalAlign=middle;align=center;" vertex="1" parent="1">
          <mxGeometry x="160" y="850" width="330" height="40" as="geometry" />
        </mxCell>
        <mxCell id="dU187JkeMogJ9jSD-jAH-39" value="laar|Architecture" style="text;strokeColor=none;fillColor=none;html=1;fontSize=24;fontStyle=1;verticalAlign=middle;align=center;" vertex="1" parent="1">
          <mxGeometry x="10" y="20" width="220" height="40" as="geometry" />
        </mxCell>
        <mxCell id="dU187JkeMogJ9jSD-jAH-65" style="edgeStyle=orthogonalEdgeStyle;rounded=0;orthogonalLoop=1;jettySize=auto;html=1;exitX=0;exitY=0.25;exitDx=0;exitDy=0;entryX=1;entryY=0.25;entryDx=0;entryDy=0;" edge="1" parent="1" source="dU187JkeMogJ9jSD-jAH-42" target="dU187JkeMogJ9jSD-jAH-55">
          <mxGeometry relative="1" as="geometry" />
        </mxCell>
        <mxCell id="dU187JkeMogJ9jSD-jAH-42" value="&lt;font style=&quot;font-size: 33px;&quot;&gt;MQTT&lt;/font&gt;" style="rounded=0;whiteSpace=wrap;html=1;" vertex="1" parent="1">
          <mxGeometry x="1150" y="1080" width="330" height="130" as="geometry" />
        </mxCell>
        <mxCell id="dU187JkeMogJ9jSD-jAH-67" style="edgeStyle=orthogonalEdgeStyle;rounded=0;orthogonalLoop=1;jettySize=auto;html=1;exitX=1;exitY=0.25;exitDx=0;exitDy=0;entryX=0;entryY=0.25;entryDx=0;entryDy=0;" edge="1" parent="1" source="dU187JkeMogJ9jSD-jAH-48" target="dU187JkeMogJ9jSD-jAH-51">
          <mxGeometry relative="1" as="geometry" />
        </mxCell>
        <mxCell id="dU187JkeMogJ9jSD-jAH-48" value="&lt;font style=&quot;font-size: 33px;&quot;&gt;Aplication Control&lt;/font&gt;" style="rounded=0;whiteSpace=wrap;html=1;" vertex="1" parent="1">
          <mxGeometry x="620" y="920" width="330" height="110" as="geometry" />
        </mxCell>
        <mxCell id="dU187JkeMogJ9jSD-jAH-66" style="edgeStyle=orthogonalEdgeStyle;rounded=0;orthogonalLoop=1;jettySize=auto;html=1;exitX=0;exitY=0.5;exitDx=0;exitDy=0;entryX=1;entryY=0.5;entryDx=0;entryDy=0;" edge="1" parent="1" source="dU187JkeMogJ9jSD-jAH-51" target="dU187JkeMogJ9jSD-jAH-48">
          <mxGeometry relative="1" as="geometry" />
        </mxCell>
        <mxCell id="dU187JkeMogJ9jSD-jAH-51" value="&lt;font style=&quot;font-size: 33px;&quot;&gt;Market&lt;/font&gt;" style="rounded=0;whiteSpace=wrap;html=1;" vertex="1" parent="1">
          <mxGeometry x="1150" y="917" width="330" height="120" as="geometry" />
        </mxCell>
        <mxCell id="dU187JkeMogJ9jSD-jAH-53" value="Контроль ресурсов" style="rounded=0;whiteSpace=wrap;html=1;" vertex="1" parent="1">
          <mxGeometry x="2776" y="1160" width="204" height="120" as="geometry" />
        </mxCell>
        <mxCell id="dU187JkeMogJ9jSD-jAH-64" style="edgeStyle=orthogonalEdgeStyle;rounded=0;orthogonalLoop=1;jettySize=auto;html=1;exitX=1;exitY=0.5;exitDx=0;exitDy=0;entryX=0;entryY=0.5;entryDx=0;entryDy=0;" edge="1" parent="1" source="dU187JkeMogJ9jSD-jAH-55" target="dU187JkeMogJ9jSD-jAH-42">
          <mxGeometry relative="1" as="geometry" />
        </mxCell>
        <mxCell id="dU187JkeMogJ9jSD-jAH-55" value="&lt;span style=&quot;font-size: 33px;&quot;&gt;Apps Firewall&lt;/span&gt;" style="rounded=0;whiteSpace=wrap;html=1;" vertex="1" parent="1">
          <mxGeometry x="620" y="1080" width="330" height="130" as="geometry" />
        </mxCell>
        <mxCell id="dU187JkeMogJ9jSD-jAH-58" style="edgeStyle=orthogonalEdgeStyle;rounded=0;orthogonalLoop=1;jettySize=auto;html=1;exitX=1;exitY=0.5;exitDx=0;exitDy=0;entryX=-0.001;entryY=0.342;entryDx=0;entryDy=0;entryPerimeter=0;" edge="1" parent="1" source="dU187JkeMogJ9jSD-jAH-33" target="dU187JkeMogJ9jSD-jAH-55">
          <mxGeometry relative="1" as="geometry" />
        </mxCell>
        <mxCell id="dU187JkeMogJ9jSD-jAH-59" style="edgeStyle=orthogonalEdgeStyle;rounded=0;orthogonalLoop=1;jettySize=auto;html=1;exitX=0;exitY=0.5;exitDx=0;exitDy=0;entryX=1.017;entryY=0.545;entryDx=0;entryDy=0;entryPerimeter=0;" edge="1" parent="1" source="dU187JkeMogJ9jSD-jAH-55" target="dU187JkeMogJ9jSD-jAH-33">
          <mxGeometry relative="1" as="geometry" />
        </mxCell>
        <mxCell id="dU187JkeMogJ9jSD-jAH-63" style="edgeStyle=orthogonalEdgeStyle;rounded=0;orthogonalLoop=1;jettySize=auto;html=1;exitX=0;exitY=0.5;exitDx=0;exitDy=0;entryX=1.016;entryY=0.152;entryDx=0;entryDy=0;entryPerimeter=0;" edge="1" parent="1" source="dU187JkeMogJ9jSD-jAH-48" target="dU187JkeMogJ9jSD-jAH-33">
          <mxGeometry relative="1" as="geometry" />
        </mxCell>
      </root>
    </mxGraphModel>
  </diagram>
</mxfile>
